PathFileType	4	(X/Y/Z)	/Users/niels/Desktop/University/Third Semester/Perception and Action/Exam/Gymnastics Motion Tracking/Code for Gym Tracking/Analyzed Data/Webcam_Backflip/id4_3_trajectory_Sports2D/id4_3_trajectory_Sports2D_px_person00.trc
DataRate	CameraRate	NumFrames	NumMarkers	Units	OrigDataRate	OrigDataStartFrame	OrigNumFrames
29.714285714285715	29.714285714285715	7	22	m	29.714285714285715	26	105
Frame#	Time	Hip			RHip			RKnee			RAnkle			RBigToe			RSmallToe			RHeel			LHip			LKnee			LAnkle			LBigToe			LSmallToe			LHeel			Neck			Head			Nose			RShoulder			RElbow			RWrist			LShoulder			LElbow			LWrist		
		X1	Y1	Z1	X2	Y2	Z2	X3	Y3	Z3	X4	Y4	Z4	X5	Y5	Z5	X6	Y6	Z6	X7	Y7	Z7	X8	Y8	Z8	X9	Y9	Z9	X10	Y10	Z10	X11	Y11	Z11	X12	Y12	Z12	X13	Y13	Z13	X14	Y14	Z14	X15	Y15	Z15	X16	Y16	Z16	X17	Y17	Z17	X18	Y18	Z18	X19	Y19	Z19	X20	Y20	Z20	X21	Y21	Z21	X22	Y22	Z22
26	0.875	0.9173761146233911	-0.5662132852118147	0.0	0.9167744708247331	-0.559972507749436	0.0	0.9644521402156644	-0.6769085499662975	0.0	0.9329201019366551	-0.8031243786764448	0.0	0.977522840897705	-0.8384416971438717	0.0	0.9650846062139887	-0.8411770517495609	0.0	0.9201345843275486	-0.8211376816015508	0.0	0.9219585016375594	-0.5591726324913997	0.0	0.9589144346761643	-0.6745267778729807	0.0	0.9343090787032786	-0.7964644229935492	0.0	0.9775417413989894	-0.8269316367356496	0.0	0.9698927190872456	-0.8221061814359115	0.0	0.9184027723445202	-0.8107867867697488	0.0	0.9565542302794858	-0.39624897051819774	0.0	1.0182757713807777	-0.3292048129420548	0.0	1.009942346392108	-0.37632041136438665	0.0	0.9446119958722234	-0.40533810098711176	0.0	0.8641366745170773	-0.4296833678931352	0.0	0.7963814857537369	-0.4642844534267026	0.0	0.9449453267483595	-0.40650148276211057	0.0	0.8744705124473572	-0.43712262582622463	0.0	0.8258488927085438	-0.47125917308671567	0.0
27	0.9086538461538461	0.9142858376877249	-0.5770284800479891	0.0	0.91254365187501	-0.5717523820998953	0.0	0.9708671182452269	-0.6843657583232091	0.0	0.9310022960992419	-0.807785369198077	0.0	0.9765562314487071	-0.8403943187912946	0.0	0.9635092156607205	-0.8432293601922608	0.0	0.917226710867114	-0.824811255293206	0.0	0.9191282188011536	-0.5705962316150432	0.0	0.965557673671151	-0.6812425929311968	0.0	0.9332791956945777	-0.80084767562999	0.0	0.9782622492093074	-0.830389536541281	0.0	0.9716718323648215	-0.8255707448848248	0.0	0.9161230061089696	-0.8154340671449903	0.0	0.9574476263282922	-0.4100554001451175	0.0	1.0162486364763335	-0.343697612596617	0.0	1.0092595733031107	-0.39034584241802023	0.0	0.9438100937177536	-0.4213379442093282	0.0	0.8706170878952117	-0.4571560666420689	0.0	0.8116055786610943	-0.5042765145085384	0.0	0.9472405239868027	-0.42271955195138256	0.0	0.880198426493062	-0.464826884955697	0.0	0.8402146871520412	-0.5081571931102639	0.0
28	0.9423076923076923	0.9107563519368306	-0.5924306677334852	0.0	0.9083308507659626	-0.5881533744783701	0.0	0.9768027842533656	-0.6953806622261306	0.0	0.9291049148189204	-0.8161457118823572	0.0	0.9758264981258498	-0.8454769382340255	0.0	0.9622470582606772	-0.8484958817153357	0.0	0.9147857844976205	-0.8319707409690941	0.0	0.915773313819935	-0.5865080624678989	0.0	0.9720765622742162	-0.6917128531490722	0.0	0.9324356222208049	-0.8089347501972407	0.0	0.9796233068151151	-0.8377185213536102	0.0	0.9741054632428794	-0.8329164065586078	0.0	0.9143856281788048	-0.8235486300218919	0.0	0.9572551970169931	-0.42770883362334794	0.0	1.0122743652967412	-0.36157934822209786	0.0	1.0073168054320432	-0.40805119071311263	0.0	0.9420749533136096	-0.44191322962043195	0.0	0.8808513867256861	-0.49130363644070923	0.0	0.8363473180778336	-0.5511342777604564	0.0	0.9481704670220688	-0.4430420380015105	0.0	0.891080591943374	-0.49876389623651923	0.0	0.8658459347927053	-0.5517116791522855	0.0
29	0.9759615384615384	0.907136743209401	-0.612415741252471	0.0	0.9047753971318605	-0.6090766188015944	0.0	0.9815144619753938	-0.7105949142675253	0.0	0.9276510505705525	-0.8290768015255079	0.0	0.9752440281991964	-0.8552080465919029	0.0	0.9613679006863195	-0.858356574145182	0.0	0.9131920826096749	-0.8435652557426507	0.0	0.9123291613857316	-0.6069186729145591	0.0	0.977661368660507	-0.7067658593959815	0.0	0.9320194941199905	-0.8216567013702488	0.0	0.9813870728752907	-0.8499878482815184	0.0	0.9763826411595402	-0.8452636820929804	0.0	0.9135751160270759	-0.8358582073262151	0.0	0.955226411327901	-0.44862431423193927	0.0	1.0057720511747188	-0.38187158564751095	0.0	1.0035435022082617	-0.4285091849499465	0.0	0.9394124538712106	-0.4660995705487565	0.0	0.8954616937585421	-0.5285649614069434	0.0	0.8709961858865585	-0.5977246916055019	0.0	0.9469757695887066	-0.4664852931951176	0.0	0.9067676922035276	-0.534732403915436	0.0	0.9001408836567307	-0.5948973744365275	0.0
30	1.0096153846153846	0.9040826998673145	-0.6359456000869459	0.0	0.9025185586113759	-0.6334257462964226	0.0	0.9844331164604337	-0.7302625617434768	0.0	0.9268986808111085	-0.8467717122482302	0.0	0.9745937526027592	-0.8703717688402463	0.0	0.960789724344676	-0.8734443719927444	0.0	0.912514996760057	-0.8599037575139372	0.0	0.9091335542413691	-0.6309155341394557	0.0	0.981429228019288	-0.7266524070699542	0.0	0.9320151608154473	-0.8393091659003119	0.0	0.9829212352973291	-0.8673718191076358	0.0	0.9775163314421266	-0.8628770112354222	0.0	0.913562807886839	-0.852656184087026	0.0	0.9509362888708127	-0.4718419602713621	0.0	0.9964302123300732	-0.40330688027915784	0.0	0.9975674394630543	-0.45046147122582536	0.0	0.9360122179725842	-0.49232998294868935	0.0	0.9142865696368502	-0.5640651255373601	0.0	0.9136672870846271	-0.6355328190750903	0.0	0.9435504959400445	-0.4917275524531544	0.0	0.9257898651217482	-0.5677693692096584	0.0	0.9387352987097397	-0.6298041459240843	0.0
31	1.0432692307692306	0.9024197605216546	-0.6610826797220097	0.0	0.9020567657448295	-0.6591858043403886	0.0	0.9851891195512466	-0.7537684531352218	0.0	0.9268688566520591	-0.8683144350319205	0.0	0.9737038872652319	-0.8902999845380771	0.0	0.9603468669757481	-0.8931390951587609	0.0	0.9126383991686327	-0.8802584702683771	0.0	0.9066833986723649	-0.6565978358074483	0.0	0.9826122429087336	-0.7505677891391771	0.0	0.9321108715388736	-0.8611074088195542	0.0	0.9834319200564275	-0.8889568493005282	0.0	0.9766836090880221	-0.8848970892963839	0.0	0.913839014335755	-0.8733137797074392	0.0	0.9444577684832393	-0.4958743316019522	0.0	0.9842880613124323	-0.4244887371440283	0.0	0.989349230974625	-0.4723776037339294	0.0	0.9321152678076471	-0.5184748964519049	0.0	0.9357196699219054	-0.5924019654042806	0.0	0.9596335013523168	-0.6566622568553742	0.0	0.9383304234963901	-0.5169146327260624	0.0	0.9458461524717281	-0.5931161506546744	0.0	0.9772327522898191	-0.6493158727157731	0.0
32	1.0769230769230769	0.902656842561965	-0.6853121899315109	0.0	0.9035049048324104	-0.6837822633368925	0.0	0.9836066760293358	-0.7792579639524001	0.0	0.9272775304687707	-0.8915812907724214	0.0	0.9724843970126531	-0.9127390825688053	0.0	0.9597934128669013	-0.9154758010731245	0.0	0.9132367827792066	-0.9027378604968431	0.0	0.905572098393035	-0.6813442534965912	0.0	0.980760263421319	-0.7764629273274666	0.0	0.9317588291666971	-0.8850268708927231	0.0	0.9822697862474544	-0.9127179112352264	0.0	0.9734201968792385	-0.9092625770297161	0.0	0.9137103990216405	-0.8960650965004995	0.0	0.9362857986565164	-0.5186423101527913	0.0	0.9696913522810855	-0.4438201462738885	0.0	0.9791630779394095	-0.4923240131940905	0.0	0.9277725357019627	-0.5419360710885849	0.0	0.956590783836957	-0.6089107756238857	0.0	1.0017487937063305	-0.6561381536777816	0.0	0.9319371421158608	-0.5396134735499476	0.0	0.9639906151660322	-0.6070407853834623	0.0	1.010963043169971	-0.6487969929604869	0.0
